<svg width="500" height="500" viewBox="0 0 500 500" fill="none" xmlns="http://www.w3.org/2000/svg">
<path d="M250 190.469C238.227 190.473 226.719 193.968 216.932 200.512C207.145 207.056 199.519 216.356 195.016 227.234C190.514 238.112 189.338 250.081 191.638 261.628C193.937 273.174 199.609 283.779 207.935 292.103C216.262 300.426 226.869 306.094 238.417 308.389C249.964 310.684 261.932 309.504 272.809 304.998C283.686 300.491 292.982 292.861 299.522 283.071C306.063 273.282 309.554 261.773 309.554 250C309.542 234.211 303.263 219.073 292.096 207.91C280.93 196.748 265.789 190.475 250 190.469ZM389.185 144.71C386.155 137.029 381.578 130.054 375.74 124.215C369.902 118.377 362.926 113.801 355.246 110.77C331.808 101.518 276.004 103.594 250 103.594C223.996 103.594 168.248 101.44 144.743 110.77C137.063 113.801 130.087 118.377 124.249 124.215C118.411 130.054 113.834 137.029 110.804 144.71C101.563 168.147 103.627 224.007 103.627 249.989C103.627 275.971 101.563 331.763 110.848 355.279C113.879 362.959 118.455 369.935 124.294 375.773C130.132 381.612 137.108 386.188 144.788 389.219C168.225 398.471 224.029 396.395 250.045 396.395C276.06 396.395 331.786 398.549 355.29 389.219C362.971 386.188 369.946 381.612 375.785 375.773C381.623 369.935 386.199 362.959 389.23 355.279C398.549 331.842 396.406 275.982 396.406 250C396.406 224.018 398.549 168.237 389.23 144.721L389.185 144.71ZM250 341.518C231.899 341.518 214.205 336.15 199.155 326.094C184.105 316.038 172.375 301.745 165.449 285.022C158.522 268.3 156.709 249.898 160.241 232.146C163.772 214.393 172.488 198.086 185.287 185.287C198.086 172.488 214.393 163.772 232.146 160.241C249.898 156.709 268.3 158.522 285.022 165.449C301.745 172.375 316.038 184.105 326.094 199.155C336.15 214.205 341.518 231.899 341.518 250C341.533 262.022 339.175 273.93 334.581 285.04C329.987 296.15 323.247 306.245 314.746 314.746C306.245 323.247 296.15 329.987 285.04 334.581C273.93 339.175 262.022 341.533 250 341.518ZM345.29 176.004C341.065 176.007 336.934 174.756 333.419 172.41C329.905 170.064 327.165 166.728 325.547 162.825C323.928 158.922 323.504 154.627 324.327 150.482C325.15 146.338 327.183 142.53 330.17 139.542C333.157 136.553 336.963 134.518 341.107 133.693C345.252 132.867 349.547 133.29 353.451 134.906C357.355 136.523 360.692 139.261 363.04 142.774C365.388 146.287 366.641 150.417 366.641 154.643C366.652 157.449 366.11 160.229 365.045 162.825C363.979 165.421 362.412 167.781 360.433 169.77C358.453 171.759 356.101 173.337 353.51 174.415C350.919 175.492 348.141 176.048 345.335 176.049L345.29 176.004ZM446.429 0H53.5714C39.3634 0 25.7373 5.64412 15.6907 15.6907C5.64412 25.7373 0 39.3634 0 53.5714L0 446.429C0 460.637 5.64412 474.263 15.6907 484.309C25.7373 494.356 39.3634 500 53.5714 500H446.429C460.637 500 474.263 494.356 484.309 484.309C494.356 474.263 500 460.637 500 446.429V53.5714C500 39.3634 494.356 25.7373 484.309 15.6907C474.263 5.64412 460.637 0 446.429 0ZM427.321 323.661C425.882 352.266 419.353 377.612 398.471 398.438C377.589 419.263 352.266 425.926 323.694 427.288C294.219 428.951 205.848 428.951 176.373 427.288C147.768 425.848 122.511 419.308 101.596 398.438C80.6808 377.567 74.1071 352.21 72.7455 323.661C71.0826 294.174 71.0826 205.792 72.7455 176.339C74.1853 147.734 80.6362 122.388 101.596 101.563C122.556 80.7366 147.879 74.1518 176.373 72.7902C205.848 71.1272 294.219 71.1272 323.694 72.7902C352.299 74.2299 377.634 80.7701 398.471 101.641C419.308 122.511 425.96 147.868 427.321 176.473C428.984 205.848 428.984 294.152 427.321 323.661Z" fill="#fff"/>
</svg>
