<svg width="60" height="60" viewBox="0 0 500 500" fill="none" xmlns="http://www.w3.org/2000/svg">
<path d="M453.125 0H46.875C21.0938 0 0 21.0938 0 46.875V453.125C0 478.906 21.0938 500 46.875 500H453.125C478.906 500 500 478.906 500 453.125V46.875C500 21.0938 478.906 0 453.125 0ZM85.9375 343.75H70.3125L62.5 296.875L70.3125 250H85.9375L93.75 296.875L85.9375 343.75ZM148.438 343.75H132.812L125 281.25L132.812 218.75H148.438L156.25 281.25L148.438 343.75ZM210.938 343.75H195.312L187.5 250L195.312 156.25H210.938L218.75 250L210.938 343.75ZM402.938 343.75L255.781 343.656C254.233 343.477 252.8 342.747 251.744 341.6C250.689 340.453 250.081 338.964 250.031 337.406V168.844C250.031 165.719 251.094 164.156 255.094 162.594C268.647 157.326 283.24 155.284 297.719 156.628C312.198 157.972 326.166 162.665 338.519 170.337C350.871 178.01 361.27 188.45 368.892 200.833C376.515 213.217 381.152 227.203 382.437 241.688C390.514 238.318 399.297 236.994 408.008 237.834C416.718 238.674 425.087 241.651 432.37 246.502C439.654 251.352 445.627 257.926 449.76 265.64C453.893 273.353 456.058 281.968 456.062 290.719C456.062 320.031 432.25 343.75 402.938 343.75Z" fill="#fff"/>
</svg>
