<svg width="60" height="60" viewBox="0 0 500 500" fill="none" xmlns="http://www.w3.org/2000/svg">
<path d="M208.482 189.844L314.732 250.223L208.482 310.603V189.844ZM500 53.5714V446.429C500 476.004 476.004 500 446.429 500H53.5714C23.9955 500 0 476.004 0 446.429V53.5714C0 23.9955 23.9955 0 53.5714 0H446.429C476.004 0 500 23.9955 500 53.5714ZM453.125 250.335C453.125 250.335 453.125 183.817 444.643 151.897C439.955 134.263 426.228 120.424 408.705 115.737C377.121 107.143 250 107.143 250 107.143C250 107.143 122.879 107.143 91.2946 115.737C73.7723 120.424 60.0446 134.263 55.3571 151.897C46.875 183.705 46.875 250.335 46.875 250.335C46.875 250.335 46.875 316.853 55.3571 348.772C60.0446 366.406 73.7723 379.688 91.2946 384.375C122.879 392.857 250 392.857 250 392.857C250 392.857 377.121 392.857 408.705 384.263C426.228 379.576 439.955 366.295 444.643 348.661C453.125 316.853 453.125 250.335 453.125 250.335Z" fill="#fff"/>
</svg>
