<?xml version="1.0" encoding="utf-8"?>
<!-- Generator: Adobe Illustrator 16.0.0, SVG Export Plug-In . SVG Version: 6.00 Build 0)  -->
<!DOCTYPE svg PUBLIC "-//W3C//DTD SVG 1.1//EN" "http://www.w3.org/Graphics/SVG/1.1/DTD/svg11.dtd">
<svg version="1.1" id="Layer_1" xmlns="http://www.w3.org/2000/svg" xmlns:xlink="http://www.w3.org/1999/xlink" x="0px" y="0px"
	 width="200px" height="100px" viewBox="0 0 300 200" enable-background="new 0 0 300 200" xml:space="preserve" data="lightyoung.svg"> 
<g>
	<path fill="#ffffff" d="M59.865,123.835c3.109-7.776,6.187-15.562,9.332-23.322c5.646-13.934,11.339-27.851,16.996-41.782
		c0.999-2.459,2.527-4.282,5.275-4.773c0.445-0.08,0.906-0.095,1.359-0.096c3.43-0.008,6.863,0.065,10.291-0.032
		c1.858-0.053,3.219,0.681,4.37,2.019c0.968,1.125,1.947,2.242,2.977,3.426c0.456-0.619,0.875-1.19,1.297-1.761
		c4.409-5.967,9.182-11.624,14.382-16.92c7.971-8.117,16.724-15.231,26.609-20.906c8.221-4.721,16.925-8.199,26.242-10.076
		c8.473-1.706,16.908-1.822,25.252,0.692c10.553,3.18,18.442,9.753,24.011,19.182c3.578,6.059,5.708,12.637,6.801,19.563
		c1.169,7.415,1.077,14.851,0.327,22.296c-0.004,0.047,0.008,0.095,0.015,0.169c1.148,0.162,2.308,0.301,3.457,0.489
		c2.763,0.452,5.027,1.786,6.837,3.913c1.011,1.188,2.011,2.384,3.071,3.525c1.8,1.936,2.431,4.246,2.021,6.777
		c-0.291,1.805-0.767,3.609-1.393,5.329c-1.057,2.9-2.282,5.739-3.466,8.592c-2.069,4.981-5.16,9.006-10.528,10.999
		c0.899,1.042,1.69,2.097,2.621,3.004c1.394,1.359,1.48,2.877,0.791,4.548c-2.963,7.171-8.252,11.602-15.803,13.337
		c-3.35,0.768-6.765,0.708-10.167,0.631c-1.104-0.024-1.744,0.324-2.391,1.222c-9.005,12.526-19.462,23.646-31.975,32.747
		c-9.254,6.73-19.255,12.014-30.212,15.408c-4.733,1.464-9.571,2.395-14.522,2.707c-0.156,0.012-0.309,0.08-0.463,0.122h-6.334
		c-0.226-0.047-0.45-0.12-0.678-0.136c-5.202-0.367-10.227-1.492-15.015-3.579c-9.85-4.291-16.813-11.507-21.332-21.17
		c-3.675-7.856-5.084-16.219-5.46-24.803c-0.035-0.805-0.004-1.612-0.004-2.49h-1.03c-3.596,0-7.193,0.006-10.79-0.003
		c-1.629-0.004-3.26-0.007-4.888-0.066c-1.196-0.042-2.208-0.499-3-1.461c-1.067-1.292-2.146-2.583-3.31-3.788
		c-0.654-0.676-1.274-1.332-1.575-2.238V123.835z M195.997,76.331c0.042-0.023,0.112-0.047,0.166-0.09
		c4.151-3.206,8.939-4.508,14.09-4.642c3.069-0.08,6.14-0.04,9.211-0.026c0.494,0.001,0.698-0.117,0.803-0.64
		c0.947-4.758,1.578-9.552,1.708-14.403c0.151-5.661-0.334-11.251-1.891-16.723c-3.195-11.237-10.159-18.954-21.342-22.607
		c-8.479-2.77-17.089-2.596-25.702-0.646c-9.674,2.189-18.638,6.107-27.037,11.343c-7.875,4.908-14.961,10.787-21.428,17.431
		c-4.575,4.7-8.771,9.715-12.627,15.019c-0.197,0.271-0.321,0.621-0.397,0.952c-0.217,0.947-0.247,1.964-0.605,2.851
		c-6.139,15.156-12.318,30.296-18.487,45.44c-0.14,0.345-0.255,0.698-0.411,1.122h0.969c6.357,0,12.714,0,19.072,0
		c0.888,0,1.775-0.014,2.663,0.004c1.069,0.022,2.018,0.323,2.746,1.183c0.314,0.371,0.725,0.662,1.13,1.022
		c0.118-0.267,0.219-0.479,0.307-0.694c1.419-3.48,2.839-6.96,4.257-10.443c3.467-8.514,6.926-17.033,10.402-25.544
		c1.374-3.362,3.359-4.677,6.968-4.677c0.878-0.001,1.755-0.001,2.818-0.001c-1.266-1.465-2.297-2.933-3.602-4.092
		c-1.305-1.158-1.489-2.454-0.969-3.878c0.878-2.403,1.826-4.791,2.919-7.103c1.029-2.172,2.868-3.45,5.304-3.503
		c3.908-0.085,7.82-0.038,11.73-0.011c1.009,0.007,1.906,0.345,2.612,1.151c1.261,1.441,2.527,2.883,3.866,4.25
		c1.119,1.144,1.356,2.475,0.788,3.84c-1.323,3.173-2.063,6.64-4.581,9.345c0.929,0,1.783-0.023,2.635,0.011
		c0.432,0.017,0.629-0.136,0.785-0.532c0.827-2.094,1.683-4.175,2.538-6.257c1.108-2.702,2.149-5.436,3.363-8.09
		c1.1-2.406,3.078-3.705,5.757-3.735c3.693-0.042,7.388-0.02,11.082-0.004c1.028,0.004,2.023,0.201,2.76,1.002
		c1.424,1.553,2.813,3.136,4.239,4.688c0.764,0.832,1.07,1.809,0.737,2.854c-0.521,1.639-1.154,3.243-1.78,4.846
		c-0.714,1.822-1.471,3.627-2.116,5.21C193.037,73.22,194.513,74.77,195.997,76.331 M154.234,91.345
		c-1.689,4.151-3.332,8.188-4.976,12.223c-3.332,8.181-6.663,16.362-9.996,24.544c-1.132,2.776-3.08,4.506-6.186,4.545
		c-3.716,0.051-7.434-0.007-11.15-0.007c-1.346,0-2.404-0.528-3.208-1.607c-0.263-0.352-0.583-0.662-0.898-1.014
		c-1.439,1.991-3.392,2.667-5.681,2.662c-7.268-0.013-14.537-0.004-21.805-0.004c-0.302,0-0.604,0-0.932,0
		c0,0.291-0.017,0.478,0.002,0.664c0.502,4.854,1.451,9.611,3.007,14.24c2.19,6.52,5.549,12.308,10.645,16.997
		c4.884,4.489,10.593,7.272,17.212,8.079c5.206,0.635,10.336,0.114,15.402-1.127c8.193-2.009,15.644-5.691,22.682-10.242
		c11.951-7.728,22.097-17.445,31.059-28.447c0.093-0.115,0.155-0.257,0.257-0.426c-0.216-0.043-0.354-0.075-0.492-0.101
		c-2.833-0.471-5.315-1.562-7.104-3.938c-0.546-0.726-1.18-1.388-1.78-2.072c-0.322-0.368-0.656-0.729-1.039-1.153
		c-0.52,1.25-0.961,2.415-1.48,3.543c-1.101,2.392-2.911,3.855-5.615,3.931c-2.47,0.067-4.94,0.093-7.408,0.016
		c-1.695-0.052-3.4-0.205-5.07-0.496c-2.79-0.483-5.208-1.675-7.032-3.969c-1.13-1.422-2.428-2.712-3.647-4.064
		c-1.043-1.154-1.658-2.512-1.897-4.038c-0.435-2.762,0.111-5.42,1.095-7.96c1.937-5,3.995-9.953,6.006-14.924
		c0.562-1.39,1.13-2.778,1.669-4.101C155.304,92.489,154.803,91.952,154.234,91.345 M199.888,103.397
		c2.139,1.904,4.618,2.004,7.145,1.994c6.069-0.017,12.14,0.023,18.209-0.028c1.306-0.009,2.639-0.186,3.909-0.492
		c4.624-1.115,7.72-4.149,9.73-8.291c1.419-2.924,2.6-5.97,3.791-8.999c0.699-1.776,1.374-3.59,1.783-5.446
		c0.952-4.33-0.787-7.09-5.105-8.139c-1.638-0.399-3.36-0.621-5.046-0.63c-8.012-0.049-16.023-0.032-24.034,0.035
		c-3.339,0.027-6.565,0.713-9.599,2.172c-4.807,2.314-7.941,6.171-9.937,11c-3.402,8.23-6.73,16.491-10.094,24.739
		c-0.888,2.173-1.775,4.339-2.102,6.695c-0.473,3.431,0.938,5.848,4.188,7.037c1.754,0.643,3.586,0.904,5.436,0.914
		c7.604,0.037,15.209,0.033,22.813,0.03c1.292-0.002,2.59-0.032,3.879-0.129c5.365-0.403,10.044-2.338,13.792-6.291
		c1.974-2.083,3.505-4.438,4.302-7.215c0.288-1.008-0.092-1.49-1.137-1.615c-0.215-0.024-0.433-0.026-0.646-0.026
		c-3.552-0.002-7.103,0.01-10.652-0.005c-1.579-0.007-2.935,0.501-3.95,1.717c-0.804,0.965-1.828,1.391-3.028,1.394
		c-4.725,0.019-9.452,0.045-14.177-0.008c-1.986-0.023-2.957-1.394-2.294-3.272C197.899,108.172,198.901,105.867,199.888,103.397
		 M82.963,112.485c0.107-0.3,0.163-0.48,0.234-0.655c6.491-15.942,12.988-31.883,19.475-47.829c0.883-2.171,1.771-4.344,2.563-6.55
		c0.395-1.102,0.038-1.554-1.097-1.76c-0.21-0.037-0.428-0.057-0.643-0.057c-3.599-0.003-7.198-0.019-10.796,0.004
		c-1.786,0.012-3.189,0.786-4.117,2.333c-0.281,0.469-0.515,0.975-0.722,1.482c-8.259,20.265-16.513,40.531-24.761,60.8
		c-0.451,1.106-0.918,2.216-1.258,3.357c-0.434,1.464,0.04,2.116,1.549,2.33c0.354,0.05,0.718,0.05,1.076,0.05
		c14.442,0.002,28.885-0.01,43.327,0.015c2.379,0.004,3.968-1.058,4.86-3.215c1.071-2.589,2.132-5.181,3.168-7.782
		c0.78-1.962,0.376-2.523-1.745-2.523c-10.052,0-20.103,0-30.156,0H82.963z M182.396,73.335c0.096-0.259,0.147-0.415,0.209-0.566
		c1.064-2.616,2.134-5.23,3.193-7.849c1.094-2.707,2.224-5.401,3.252-8.133c0.537-1.426,0.051-2.032-1.483-2.038
		c-3.693-0.015-7.388-0.025-11.081,0.006c-1.473,0.012-2.714,0.62-3.558,1.853c-0.415,0.607-0.752,1.281-1.032,1.963
		c-1.938,4.716-3.859,9.439-5.764,14.169c-0.18,0.445-0.388,0.62-0.881,0.608c-1.536-0.036-3.071-0.014-4.606-0.013
		c-2.722,0.001-4.129,0.923-5.155,3.414c-1.023,2.479-2.04,4.96-3.028,7.453c-0.2,0.503-0.301,1.055-0.38,1.595
		c-0.068,0.464,0.193,0.79,0.651,0.892c0.37,0.083,0.755,0.145,1.134,0.147c1.943,0.015,3.886,0.006,5.829,0.008
		c0.199,0,0.399,0.022,0.651,0.037c-0.144,0.362-0.253,0.65-0.369,0.936c-3.203,7.871-6.41,15.741-9.608,23.614
		c-0.861,2.12-1.519,4.294-1.593,6.601c-0.073,2.305,0.572,4.313,2.523,5.73c1.617,1.172,3.479,1.802,5.424,1.912
		c3.658,0.204,7.327,0.259,10.991,0.28c1.628,0.009,2.878-0.851,3.676-2.271c0.373-0.666,0.655-1.387,0.946-2.093
		c0.938-2.28,1.893-4.553,2.78-6.853c0.625-1.62,0.164-2.239-1.559-2.251c-0.744-0.005-1.487,0.009-2.23-0.004
		c-2.925-0.044-4.063-1.705-3.071-4.472c0.024-0.068,0.048-0.137,0.075-0.202c2.779-6.829,5.563-13.657,8.331-20.49
		c0.152-0.377,0.349-0.49,0.742-0.486c1.823,0.021,3.646,0.01,5.47,0.01c2.56,0,3.968-0.911,4.946-3.266
		c1.041-2.499,2.053-5.007,3.059-7.519c0.874-2.183,0.505-2.722-1.826-2.723C186.873,73.334,184.692,73.335,182.396,73.335
		 M123.169,125.993c1.751,0,3.502,0.007,5.253-0.002c1.348-0.007,2.603-0.351,3.482-1.416c0.553-0.673,1.021-1.459,1.351-2.266
		c3.513-8.547,6.991-17.106,10.474-25.666c2.815-6.918,5.636-13.834,8.434-20.759c0.766-1.894,0.324-2.536-1.695-2.544
		c-3.43-0.015-6.86-0.012-10.29-0.001c-1.828,0.006-3.323,0.677-4.274,2.305c-0.301,0.514-0.542,1.066-0.768,1.62
		c-4.285,10.506-8.563,21.018-12.843,31.526c-1.978,4.854-3.967,9.704-5.932,14.564c-0.82,2.032-0.398,2.637,1.772,2.64
		C119.812,125.995,121.491,125.993,123.169,125.993 M147.555,66.141c1.704,0,3.408-0.03,5.109,0.007
		c2.224,0.048,3.777-0.959,4.65-2.958c0.883-2.017,1.717-4.058,2.497-6.116c0.662-1.746,0.21-2.328-1.676-2.329
		c-3.454-0.002-6.908,0.022-10.362-0.008c-2.253-0.02-3.788,1.024-4.689,3.035c-0.538,1.201-1.015,2.43-1.497,3.654
		c-0.412,1.045-0.848,2.086-1.168,3.16c-0.268,0.898,0.097,1.364,1.022,1.509c0.282,0.044,0.574,0.043,0.861,0.044
		C144.053,66.142,145.804,66.141,147.555,66.141 M185.926,93.536c-0.997,0-1.835,0.032-2.667-0.011
		c-0.561-0.031-0.836,0.137-1.055,0.689c-1.397,3.515-2.843,7.008-4.271,10.512c-0.839,2.058-1.673,4.119-2.477,6.095
		c0.871,0.771,1.682,1.488,2.523,2.232C180.617,106.575,183.241,100.131,185.926,93.536 M155.947,72.918h-1.852
		c0.333,0.332,0.629,0.626,0.846,0.843C155.244,73.507,155.564,73.238,155.947,72.918"/>
	<path fill="#ffffff" d="M141.014,24.801c-0.453-1.079-0.818-2.035-1.261-2.953c-0.13-0.268-0.455-0.539-0.744-0.617
		c-0.965-0.263-1.956-0.439-3.126-0.69c0.646-0.55,1.168-1.057,1.752-1.479c0.813-0.586,1.302-1.219,0.997-2.319
		c-0.199-0.715-0.169-1.495-0.255-2.381c0.895,0.546,1.699,0.971,2.424,1.502c0.565,0.414,1.036,0.391,1.626,0.084
		c0.782-0.406,1.608-0.725,2.563-1.146c-0.201,0.872-0.299,1.65-0.564,2.368c-0.343,0.934-0.146,1.621,0.583,2.275
		c0.563,0.504,1.024,1.12,1.633,1.801c-1.143,0.091-2.138,0.192-3.134,0.238c-0.432,0.02-0.69,0.166-0.898,0.551
		C142.124,22.935,141.592,23.806,141.014,24.801"/>
	<path fill="#ffffff" d="M126.583,27.583c0.759-0.781,1.399-1.479,2.085-2.131c0.413-0.391,0.524-0.781,0.382-1.336
		c-0.229-0.9-0.374-1.821-0.59-2.912c0.955,0.467,1.794,0.837,2.59,1.282c0.538,0.301,0.976,0.326,1.513-0.024
		c0.777-0.506,1.61-0.922,2.541-1.444c-0.156,1.146-0.325,2.174-0.417,3.209c-0.024,0.274,0.104,0.645,0.296,0.841
		c0.72,0.732,1.494,1.41,2.36,2.211c-1.096,0.197-2.069,0.397-3.048,0.538c-0.451,0.064-0.72,0.228-0.903,0.666
		c-0.394,0.94-0.849,1.855-1.32,2.869c-0.512-0.964-0.997-1.817-1.421-2.698c-0.221-0.458-0.489-0.679-1.023-0.712
		C128.66,27.881,127.695,27.72,126.583,27.583"/>
	<path fill="#ffffff" d="M148.996,8.82c0.896,0.772,1.672,1.476,2.492,2.127c0.199,0.159,0.561,0.242,0.811,0.188
		c1.023-0.216,2.031-0.499,3.176-0.79c-0.445,1.065-0.821,2.013-1.236,2.94c-0.166,0.367-0.153,0.646,0.076,0.984
		c0.564,0.831,1.088,1.688,1.72,2.683c-1.11-0.083-2.095-0.126-3.071-0.242c-0.486-0.057-0.795,0.063-1.094,0.46
		c-0.588,0.78-1.238,1.515-1.956,2.381c-0.271-1.136-0.485-2.15-0.772-3.143c-0.077-0.266-0.336-0.564-0.588-0.678
		c-0.937-0.422-1.904-0.773-2.997-1.206c0.94-0.574,1.77-1.114,2.632-1.594c0.452-0.25,0.638-0.555,0.642-1.076
		C148.841,10.899,148.93,9.942,148.996,8.82"/>
	<path fill="#ffffff" d="M216.951,85.524c2.206,0,4.414-0.008,6.62,0.002c2.187,0.009,3.182,1.339,2.491,3.41
		c-0.384,1.156-0.845,2.295-1.379,3.39c-0.863,1.771-2.327,2.708-4.313,2.714c-4.343,0.017-8.684,0.008-13.026,0.001
		c-0.331-0.001-0.67-0.041-0.995-0.116c-1.373-0.311-2.152-1.381-1.734-2.722c0.488-1.567,1.101-3.122,1.875-4.567
		c0.779-1.452,2.178-2.108,3.842-2.111C212.537,85.521,214.744,85.524,216.951,85.524"/>
</g>
</svg>
