<?xml version="1.0" encoding="utf-8"?>
<!-- Generator: Adobe Illustrator 16.0.0, SVG Export Plug-In . SVG Version: 6.00 Build 0)  -->
<!DOCTYPE svg PUBLIC "-//W3C//DTD SVG 1.1//EN" "http://www.w3.org/Graphics/SVG/1.1/DTD/svg11.dtd">
<svg version="1.1" id="Layer_1" xmlns="http://www.w3.org/2000/svg" xmlns:xlink="http://www.w3.org/1999/xlink" x="0px" y="0px"
	 width="300px" height="200px" viewBox="0 0 300 200" enable-background="new 0 0 300 200" xml:space="preserve">
<g>
	<path fill="#ffffff" d="M104.699,131.785l6.253-33.176h8.569c0.434,0,0.806,0.199,1.115,0.597c0.105,0.142,0.192,0.288,0.26,0.442
		l-6.051,32.137h15.214v-1.02l5.456-29.04h-0.042c0.29-0.962,0.434-2.001,0.434-3.116c0-2.297-0.607-4.253-1.824-5.87
		c-1.119-1.5-2.46-2.309-4.023-2.424h2.344c1.718,0,3.189-0.814,4.415-2.444c0.396-0.526,0.729-1.09,0.999-1.693
		c0.241-0.372,0.473-0.841,0.694-1.404c0.204-0.539,0.372-1.116,0.507-1.731h0.015l4.285-22.805h-0.043
		c0.289-0.963,0.434-2.001,0.434-3.117c0-2.282-0.608-4.24-1.825-5.868c-1.119-1.488-2.46-2.291-4.023-2.406v-0.019H105.09
		L89.5,131.785H104.699z M117.192,65.414h8.583c0.424,0,0.792,0.205,1.1,0.616c0.106,0.142,0.193,0.288,0.26,0.442l-2.519,13.394
		c-0.145,0.334-0.324,0.647-0.536,0.942c-0.618,0.809-1.356,1.212-2.214,1.212h-7.802L117.192,65.414z"/>
	<path fill="#ffffff" d="M138.702,120.393c-0.29,0.949-0.434,1.981-0.434,3.098c0,2.298,0.603,4.254,1.81,5.87
		c1.119,1.501,2.461,2.31,4.023,2.425h27.692c1.727,0,3.199-0.808,4.414-2.425c0.995-1.32,1.583-2.867,1.767-4.638
		c0.02-0.064,0.033-0.128,0.044-0.192h0.014l12.102-64.293h-0.044c0.29-0.962,0.435-2.001,0.435-3.117
		c0-2.282-0.613-4.24-1.838-5.868c-1.119-1.489-2.461-2.291-4.023-2.406v-0.02H156.97c-1.718,0-3.189,0.809-4.414,2.426
		c-0.994,1.32-1.583,2.873-1.768,4.656c-0.009,0.051-0.024,0.109-0.043,0.173h-0.014l-12.074,64.312H138.702z M163.991,65.414
		h10.146l-9.366,49.783h-10.146L163.991,65.414z"/>
	<path fill="#ffffff" d="M198.312,131.785l1.563-4.138h14.041v4.138h14.041V48.827h-14.041l-31.194,82.958H198.312z M213.916,90.315
		v20.745h-7.803L213.916,90.315z"/>
	<path fill="#ffffff" d="M288.406,57.12c0-2.282-0.607-4.24-1.824-5.868c-1.119-1.489-2.461-2.291-4.024-2.406v-0.02h-32.771
		l-15.591,82.959h35.494c1.718,0,3.189-0.808,4.415-2.425c0.994-1.32,1.583-2.867,1.766-4.638c0.01-0.064,0.024-0.128,0.044-0.192
		h0.014l12.088-64.293h-0.044C288.262,59.275,288.406,58.236,288.406,57.12z M262.669,115.197h-10.147l9.365-49.783h10.134
		L262.669,115.197z"/>
	<polygon fill="#ffffff" points="95.837,46.229 72.725,46.229 53.535,98.583 48.737,46.229 31.856,46.229 12.32,152.873 
		30.076,152.873 37.198,114.101 40.742,152.873 51.408,152.873 65.619,114.101 58.514,152.873 59.204,152.873 59.188,152.958 
		283.446,152.902 285.618,139.208 78.791,139.208 	"/>
</g>
<g>
	<path fill="#ffffff" d="M459.366,131.785l6.253-33.176h8.57c0.434,0,0.805,0.199,1.115,0.597c0.105,0.142,0.191,0.288,0.26,0.442
		l-6.051,32.137h15.214v-1.02l5.456-29.04h-0.043c0.29-0.962,0.434-2.001,0.434-3.116c0-2.297-0.607-4.253-1.823-5.87
		c-1.119-1.5-2.46-2.309-4.023-2.424h2.345c1.717,0,3.189-0.814,4.414-2.444c0.396-0.526,0.729-1.09,1-1.693
		c0.24-0.372,0.473-0.841,0.693-1.404c0.204-0.539,0.372-1.116,0.508-1.731h0.014l4.285-22.805h-0.043
		c0.289-0.963,0.434-2.001,0.434-3.117c0-2.282-0.607-4.24-1.824-5.868c-1.119-1.488-2.461-2.291-4.023-2.406v-0.019h-32.771
		l-15.591,82.958H459.366z M471.859,65.414h8.583c0.425,0,0.792,0.205,1.101,0.616c0.105,0.142,0.193,0.288,0.26,0.442
		l-2.519,13.394c-0.145,0.334-0.323,0.647-0.536,0.942c-0.617,0.809-1.355,1.212-2.214,1.212h-7.802L471.859,65.414z"/>
	<path fill="#ffffff" d="M493.369,120.393c-0.29,0.949-0.435,1.981-0.435,3.098c0,2.298,0.603,4.254,1.81,5.87
		c1.119,1.501,2.461,2.31,4.023,2.425h27.692c1.727,0,3.199-0.808,4.414-2.425c0.995-1.32,1.583-2.867,1.767-4.638
		c0.02-0.064,0.033-0.128,0.044-0.192h0.014L544.8,60.237h-0.044c0.29-0.962,0.435-2.001,0.435-3.117
		c0-2.282-0.613-4.24-1.838-5.868c-1.119-1.489-2.461-2.291-4.023-2.406v-0.02h-27.692c-1.718,0-3.189,0.809-4.414,2.426
		c-0.994,1.32-1.583,2.873-1.768,4.656c-0.009,0.051-0.024,0.109-0.043,0.173h-0.014l-12.074,64.312H493.369z M518.658,65.414
		h10.146l-9.366,49.783h-10.146L518.658,65.414z"/>
	<path fill="#ffffff" d="M552.979,131.785l1.563-4.138h14.041v4.138h14.041V48.827h-14.041l-31.194,82.958H552.979z M568.583,90.315
		v20.745h-7.803L568.583,90.315z"/>
	<path fill="#ffffff" d="M643.073,57.12c0-2.282-0.607-4.24-1.824-5.868c-1.119-1.489-2.461-2.291-4.024-2.406v-0.02h-32.771
		l-15.591,82.959h35.494c1.718,0,3.189-0.808,4.415-2.425c0.994-1.32,1.583-2.867,1.766-4.638c0.01-0.064,0.024-0.128,0.044-0.192
		h0.014l12.088-64.293h-0.044C642.929,59.275,643.073,58.236,643.073,57.12z M617.336,115.197h-10.147l9.365-49.783h10.134
		L617.336,115.197z"/>
	<polygon fill="#ffffff" points="450.504,46.229 427.393,46.229 408.202,98.583 403.404,46.229 386.523,46.229 366.987,152.873 
		384.742,152.873 391.865,114.101 395.409,152.873 406.074,152.873 420.285,114.101 413.182,152.873 413.871,152.873 
		413.855,152.958 638.113,152.902 640.285,139.208 433.457,139.208 	"/>
</g>
</svg>
