<?xml version="1.0" encoding="iso-8859-1"?>
<!-- Generator: Adobe Illustrator 26.5.0, SVG Export Plug-In . SVG Version: 6.00 Build 0)  -->
<svg version="1.1" id="Layer_1" xmlns="http://www.w3.org/2000/svg" xmlns:xlink="http://www.w3.org/1999/xlink" x="0px" y="0px"
	 viewBox="0 0 595.276 841.89" style="enable-background:new 0 0 595.276 841.89;" xml:space="preserve">
<g>
	<path style="fill:none;stroke:#FFFFFF;stroke-width:4;stroke-miterlimit:10;" d="M578.523,310.317c0-143.87-125.36-260.5-280-260.5
		s-280,116.63-280,260.5c0,114.231,79.034,211.279,189,246.421v24.973c0,5.582,4.525,10.106,10.106,10.106h162.787
		c5.582,0,10.106-4.525,10.106-10.106v-25.3C499.966,521,578.523,424.201,578.523,310.317z"/>
	<g>
		<g>
			<path style="fill:#FFFFFF;" d="M123.168,231.397c-9.68,15.092-17.758,32.009-23.848,50.751
				c-20.923-6.798-41.847-13.597-62.77-20.395c4.007-12.331,8.667-24.062,13.919-35.192c14.738,7.153,29.476,14.306,44.215,21.46
				c4.313-9.143,9.112-17.792,14.343-25.948C113.741,225.18,118.455,228.288,123.168,231.397z"/>
			<path style="fill:#FFFFFF;" d="M127.25,225.276c-17.982-12.787-35.965-25.574-53.947-38.361
				c6.654-9.6,13.817-18.599,21.425-26.998c16.268,14.947,32.536,29.895,48.804,44.842
				C137.75,211.142,132.306,217.981,127.25,225.276z"/>
			<path style="fill:#FFFFFF;" d="M173.374,154.189c-0.512-0.791-1.025-1.583-1.537-2.374c-1.966,1.256-3.915,2.545-5.847,3.867
				c-3.082-4.46-6.165-8.919-9.247-13.379c9.791-6.699,20.01-12.615,30.557-17.748c5.265,10.563,10.529,21.126,15.794,31.689
				c-7.468,7.174-15.321,13.524-23.995,19.494c-5.949,4.101-11.113,7.226-15.76,9.173c-4.642,1.949-8.975,2.916-13.1,2.776
				c-4.122-0.14-8.132-1.274-12.019-3.52c-3.886-2.246-7.9-5.37-11.982-9.456c-4.331-4.334-7.493-8.62-9.381-12.929
				c-1.889-4.302-2.369-8.869-1.328-13.645c1.039-4.766,3.701-9.899,8.09-15.151c4.385-5.242,10.649-10.862,18.882-16.368
				c1.83-1.223,4.037-2.576,6.631-4.03c2.593-1.452,5.258-2.822,7.987-4.102c2.728-1.279,5.348-2.403,7.852-3.387
				c2.502-0.981,4.563-1.666,6.169-2.088c1.059,5.539,2.209,11.047,3.449,16.524c-3.89,1.537-7.52,3.168-10.885,4.86
				c-3.367,1.694-6.416,3.449-9.146,5.231c-5.676,3.712-9.342,6.829-11.133,9.024c-1.793,2.206-2.011,4.167-0.717,5.846
				c6.103,7.946,12.206,15.892,18.309,23.838c2.345-1.793,4.722-3.533,7.128-5.219c2.68-1.877,4.489-3.403,5.395-4.665
				C174.445,157.19,174.398,155.774,173.374,154.189z"/>
			<path style="fill:#FFFFFF;" d="M255.591,141.952c-1.579-7.618-3.157-15.236-4.736-22.854c-6.673,1.328-13.292,2.941-19.836,4.84
				c2.243,7.456,4.485,14.912,6.728,22.368c-7.85,2.277-15.578,5.011-23.138,8.2c-8.784-20.239-17.567-40.478-26.351-60.717
				c9.947-4.197,20.118-7.794,30.447-10.79c2.243,7.456,4.485,14.912,6.728,22.368c7.09-2.057,14.261-3.804,21.49-5.243
				c-1.579-7.618-3.157-15.236-4.736-22.854c10.532-2.096,21.175-3.592,31.865-4.487c1.918,21.92,3.837,43.84,5.755,65.76
				C271.683,139.223,263.595,140.36,255.591,141.952z"/>
			<path style="fill:#FFFFFF;" d="M357.33,95.298c-7.129-1.617-14.319-2.937-21.549-3.962c-2.395,16.199-4.79,32.399-7.185,48.598
				c-8.075-1.144-16.21-1.832-24.358-2.064c0.487-16.361,0.974-32.722,1.46-49.083c-7.295-0.208-14.599-0.119-21.888,0.266
				c-0.31-5.624-0.62-11.248-0.931-16.871c26.243-1.385,52.667,0.833,78.334,6.655C359.919,84.323,358.625,89.81,357.33,95.298z"/>
			<path style="fill:#FFFFFF;" d="M405.794,92.957c9.977,4.117,19.735,8.834,29.212,14.152
				c-8.228,14.393-16.457,28.785-24.685,43.178c2.751,1.544,5.474,3.149,8.165,4.817c2.91,1.805,5.049,2.8,6.476,2.898
				c1.424,0.099,2.806-0.811,4.14-2.756c8.305-12.131,16.61-24.263,24.915-36.394c9.061,6.138,17.796,12.876,26.143,20.215
				c-8.181,9.327-16.362,18.654-24.544,27.981c-3.733,4.253-7.252,7.513-10.508,9.839c-3.26,2.322-6.656,3.574-10.177,3.84
				c-3.528,0.265-7.32-0.535-11.477-2.296c-4.16-1.758-9.046-4.551-14.872-8.151c-5.83-3.596-10.459-6.682-13.824-9.586
				c-3.363-2.898-5.694-5.884-6.957-9.096c-1.264-3.209-1.576-6.77-0.87-10.719c0.709-3.945,2.133-8.527,4.339-13.726
				C396.113,115.753,400.954,104.355,405.794,92.957z"/>
			<path style="fill:#FFFFFF;" d="M484.901,220.587c-3.432-5.226-7.045-10.244-10.823-15.055
				c-4.157,3.334-8.314,6.667-12.471,10.001c-5.401-6.877-11.167-13.298-17.249-19.263c15.409-15.841,30.817-31.682,46.226-47.524
				c12.606,12.362,24.178,26.213,34.469,41.553c14.051,21.326,11.902,37.522-2.631,44.39c-3.206,1.6-6.443,2.592-9.69,3.043
				c-3.25,0.448-6.454,0.101-9.622-0.963c-3.172-1.066-6.24-2.91-9.263-5.476C490.818,228.725,487.891,225.142,484.901,220.587z
				 M504.568,190.631c-1.481-2.006-2.986-3.982-4.514-5.928c-4.249,3.407-8.498,6.814-12.746,10.221
				c1.432,1.824,2.842,3.675,4.23,5.554c2.217,3.006,3.977,5.084,5.362,6.162c1.379,1.076,2.865,1.082,4.466-0.019
				c2.035-1.402,4.069-2.804,6.104-4.205c1.55-1.066,2.053-2.49,1.48-4.262C508.373,196.383,506.935,193.84,504.568,190.631z"/>
			<path style="fill:#FFFFFF;" d="M521.079,247.154c9.288-4.398,18.565-8.823,27.829-13.274c3.911,8.923,7.451,18.214,10.589,27.873
				c-9.847,2.916-19.686,5.861-29.515,8.835c-4.943,1.117-9.878,2.264-14.805,3.44c-2.242-6.72-4.718-13.224-7.414-19.51
				C512.215,252.088,516.653,249.633,521.079,247.154z M507.537,265.696c1.228,3.23,1.479,6.238,0.778,8.91
				c-0.703,2.675-2.254,4.376-4.596,5.136c-2.345,0.762-4.582,0.31-6.725-1.255c-2.146-1.567-3.754-3.834-4.89-6.824
				c-1.137-2.989-1.404-5.738-0.785-8.352c0.618-2.609,1.966-4.414,4.108-5.38c2.246-1.011,4.517-0.82,6.804,0.671
				C504.514,260.095,506.308,262.466,507.537,265.696z"/>
		</g>
	</g>
	<g>
		<g>
			<path style="fill:#FFFFFF;" d="M64.009,370.513c0.839-0.32,1.678-0.64,2.518-0.96c-0.746-2.083-1.469-4.187-2.169-6.311
				c4.87-1.709,9.741-3.417,14.611-5.126c3.11,9.435,6.707,18.44,10.746,27.016c-10.095,5.028-20.191,10.057-30.286,15.085
				c-7.264-8.292-13.006-18.453-16.815-30.109c-2.614-8.002-3.813-15.088-3.822-20.897c-0.008-5.819,1.084-10.686,3.142-14.464
				c2.059-3.786,5.04-6.645,8.869-8.595c3.829-1.956,8.46-3.363,13.866-4.305c5.738-1,10.781-1.16,15.124-0.599
				c4.343,0.561,8.091,2.037,11.286,4.331c3.196,2.297,5.906,5.532,8.243,9.656c2.338,4.124,4.445,9.297,6.536,15.464
				c0.465,1.37,0.957,2.997,1.494,4.873c0.536,1.875,1.049,3.77,1.539,5.687c0.49,1.917,0.939,3.736,1.343,5.462
				c0.403,1.726,0.68,3.139,0.812,4.25c-5.102,1.271-10.23,2.465-15.382,3.579c-0.832-3.044-1.632-5.931-2.42-8.66
				c-0.789-2.73-1.579-5.259-2.393-7.59c-1.689-4.847-3.07-8.251-4.323-10.089c-1.248-1.838-2.827-2.495-4.761-1.915
				c-9.126,2.746-18.251,5.492-27.377,8.238c0.829,2.918,1.698,5.801,2.608,8.649c1.014,3.171,2.042,5.332,3.021,6.519
				C60.998,370.892,62.331,371.154,64.009,370.513z"/>
			<path style="fill:#FFFFFF;" d="M108.569,443.784c-2.626,7.842-4.945,15.866-6.943,24.049
				c-6.353-6.753-12.388-13.922-18.065-21.505c2.884-6.649,5.964-13.16,9.231-19.52c-0.991-1.446-1.968-2.907-2.932-4.384
				c-5.208,3.525-10.415,7.05-15.623,10.575c-4.781-7.323-9.248-14.988-13.372-22.997c18.557-10.062,37.115-20.124,55.672-30.186
				c4.976,9.662,10.604,18.673,16.795,27.032c8.406,11.214,7.954,21.086-2.846,31.421
				C123.091,445.221,115.768,447.302,108.569,443.784z M116.083,410.651c-0.932-1.356-1.85-2.727-2.755-4.113
				c-3.503,2.371-7.006,4.742-10.509,7.113c0.956,1.465,1.927,2.913,2.911,4.346c1.576,2.292,2.952,3.761,4.076,4.444
				c1.127,0.683,2.409,0.468,3.846-0.627c1.123-0.854,2.246-1.708,3.369-2.563c1.437-1.094,2.009-2.263,1.732-3.507
				C118.476,414.499,117.574,412.819,116.083,410.651z"/>
			<path style="fill:#FFFFFF;" d="M126.104,447.582c4.189-4.039,8.168-7.132,11.885-9.348c3.718-2.215,7.345-3.457,10.875-3.799
				c3.532-0.341,7.046,0.24,10.615,1.684c3.571,1.444,7.343,3.808,11.479,7.016c4.178,3.237,7.379,6.276,9.587,9.324
				c2.205,3.045,3.552,6.251,4.018,9.709c0.464,3.454,0.072,7.224-1.232,11.323c-1.309,4.096-3.4,8.662-6.353,13.662
				c-2.811,4.758-5.694,8.68-8.708,11.724c-3.013,3.043-6.398,5.074-10.172,6.012c-3.771,0.939-8.036,0.728-12.709-0.736
				c-4.668-1.464-9.966-4.321-15.658-8.732c-5.693-4.416-9.814-8.864-12.418-13.053c-2.608-4.195-3.894-8.308-3.924-12.214
				c-0.031-3.909,1.11-7.697,3.35-11.348C118.976,455.151,122.118,451.426,126.104,447.582z M150.321,455.762
				c-5.706,6.716-11.412,13.432-17.117,20.148c2.492,2.094,5.021,4.131,7.586,6.113c2.565,1.981,4.629,3.088,6.136,3.383
				c1.507,0.294,2.942-0.506,4.306-2.377c5.195-7.112,10.39-14.224,15.584-21.336c-2.324-1.66-4.618-3.37-6.881-5.13
				c-2.15-1.673-3.896-2.682-5.283-2.984C153.267,453.278,151.822,453.998,150.321,455.762z"/>
			<path style="fill:#FFFFFF;" d="M195.956,461.343c5.487,3.013,11.103,5.763,16.825,8.25c-6.575,14.414-13.15,28.829-19.725,43.243
				c2.491,1.083,4.999,2.125,7.522,3.127c2.731,1.083,4.73,1.465,5.958,1.202c1.231-0.264,2.244-1.452,3.049-3.552
				c5.023-13.096,10.047-26.193,15.07-39.289c5.858,2.128,11.806,3.994,17.824,5.596c-3.219,11.369-6.439,22.738-9.658,34.107
				c-1.467,5.185-3.078,9.462-4.879,12.812c-1.801,3.349-4.164,5.835-7.117,7.404c-2.952,1.569-6.647,2.209-11.038,1.828
				c-4.386-0.384-9.826-1.74-16.164-4.263c-6.339-2.527-11.212-5.281-14.633-8.014c-3.424-2.737-5.626-5.72-6.63-8.843
				c-1.007-3.125-0.917-6.523,0.217-10.171c1.13-3.651,3.063-7.815,5.744-12.516C184.199,481.958,190.078,471.651,195.956,461.343z"
				/>
			<path style="fill:#FFFFFF;" d="M299.933,550.25c-7.654,0.03-15.31-0.245-22.942-0.823c-5.577-7.894-10.625-15.948-15.137-24.113
				c-0.25-0.431-0.406-1.047-0.468-1.85c-0.064-0.802-0.026-1.843,0.113-3.126c-0.151-0.022-0.301-0.044-0.452-0.066
				c-1.415,8.968-2.831,17.937-4.246,26.905c-8.041-1.186-16.03-2.715-23.94-4.587c5.144-20.402,10.287-40.805,15.431-61.207
				c5.706,1.35,11.466,2.468,17.261,3.352c3.492,8.073,7.516,16.072,12.068,23.945c0.25,0.415,0.426,1.021,0.529,1.816
				c0.103,0.797,0.127,1.838,0.073,3.126c0.146,0.012,0.293,0.024,0.439,0.036c0.783-9.04,1.566-18.081,2.349-27.121
				c6.206,0.501,12.434,0.74,18.66,0.716C299.759,508.251,299.846,529.25,299.933,550.25z"/>
			<path style="fill:#FFFFFF;" d="M343.544,546.762c-11.241,1.769-22.588,2.865-33.96,3.29c-0.84-20.984-1.68-41.969-2.52-62.953
				c8.712-0.325,17.404-1.165,26.015-2.52c5.174-0.815,9.576-1.111,13.317-0.756c3.735,0.355,6.985,1.435,9.794,3.311
				c2.806,1.876,5.273,4.564,7.373,8.11c2.097,3.548,4.023,8.015,5.7,13.432c1.678,5.418,2.601,10.195,2.693,14.342
				c0.095,4.146-0.802,7.798-2.74,10.916c-1.935,3.116-5.005,5.797-9.205,7.928C355.809,543.992,350.302,545.697,343.544,546.762z
				 M336.086,500.446c-2.762,0.439-5.532,0.828-8.309,1.168c1.335,10.167,2.669,20.333,4.004,30.5
				c3.16-0.387,6.313-0.831,9.457-1.33c3.147-0.501,5.327-1.226,6.546-2.107c1.214-0.88,1.583-2.453,1.117-4.704
				c-1.347-6.536-2.694-13.071-4.042-19.607c-0.466-2.251-1.362-3.575-2.67-3.988C340.873,499.965,338.85,500.006,336.086,500.446z"
				/>
			<path style="fill:#FFFFFF;" d="M441.602,511.545c-18.934,11.342-39.178,20.192-60.155,26.549
				c-1.289-4.01-2.578-8.021-3.867-12.031c6.043-13.596,10.68-27.35,13.93-41.051c-0.159-0.146-0.317-0.292-0.475-0.438
				c-6.486,2.799-13.097,5.285-19.806,7.459c-2.336-4.912-4.63-9.84-6.883-14.784c15.15-4.774,29.779-11.256,43.513-19.447
				c2.22,3.6,4.441,7.201,6.661,10.801c-1.303,13.942-3.957,28.101-8.007,42.271c0.199,0.127,0.399,0.253,0.599,0.379
				c8.882-3.985,17.547-8.491,25.938-13.518C435.9,502.339,438.751,506.942,441.602,511.545z"/>
			<path style="fill:#FFFFFF;" d="M469.762,460.223c-5.519,5.256-11.263,10.199-17.206,14.83c1.596,2.014,3.191,4.028,4.787,6.043
				c7.506-5.849,14.706-12.182,21.548-18.999c3.824,3.846,7.649,7.693,11.473,11.539c-13.219,13.17-27.692,24.643-43.097,34.417
				c-11.578-17.709-23.155-35.418-34.733-53.127c11.668-7.404,22.639-16.079,32.673-26.026c3.245,4.42,6.443,8.881,9.592,13.38
				c-5.342,5.164-10.922,10.001-16.709,14.511c1.771,2.236,3.542,4.471,5.313,6.707c5.589-4.355,10.991-9.004,16.181-13.947
				C462.977,453.108,466.37,456.666,469.762,460.223z"/>
			<path style="fill:#FFFFFF;" d="M511.754,411.66c8.245-0.13,16.591-0.674,25.011-1.658c-4.537,8.809-9.488,17.204-14.816,25.183
				c-7.152-0.613-14.218-1.49-21.186-2.618c-1.027,1.406-2.066,2.797-3.118,4.173c4.955,3.882,9.911,7.764,14.866,11.645
				c-5.22,6.825-10.732,13.308-16.508,19.447c-15.379-14.572-30.757-29.144-46.136-43.716c6.968-7.407,13.436-15.466,19.317-24.177
				c7.883-11.806,17.53-15.079,30.639-8.015C508.697,396.772,512.879,403.361,511.754,411.66z M478.239,415.324
				c-0.963,1.322-1.938,2.629-2.926,3.921c3.333,2.611,6.666,5.222,10,7.833c1.044-1.365,2.075-2.746,3.092-4.143
				c1.626-2.234,2.563-4.035,2.846-5.34c0.282-1.308-0.325-2.479-1.806-3.511c-1.156-0.807-2.312-1.615-3.469-2.422
				c-1.481-1.033-2.758-1.204-3.835-0.534C481.062,411.799,479.777,413.21,478.239,415.324z"/>
			<path style="fill:#FFFFFF;" d="M510.041,392.908c-5.121-2.715-9.275-5.567-12.511-8.483c-3.233-2.918-5.51-6.106-6.887-9.556
				c-1.378-3.452-1.862-7.254-1.524-11.509c0.338-4.259,1.512-9.141,3.398-14.896c1.902-5.815,3.898-10.642,6.187-14.442
				c2.288-3.799,4.975-6.79,8.162-8.933c3.184-2.139,6.922-3.486,11.246-3.949c4.324-0.46,9.331-0.251,15.013,0.739
				c5.407,0.942,10.034,2.369,13.856,4.364c3.821,1.992,6.78,4.892,8.8,8.712c2.02,3.817,3.075,8.699,3.036,14.507
				c-0.041,5.803-1.249,12.839-3.841,20.761c-2.595,7.921-5.675,13.998-8.938,18.344c-3.268,4.347-6.836,7.228-10.574,8.736
				c-3.74,1.512-7.708,1.766-11.874,0.867C519.421,397.272,514.915,395.491,510.041,392.908z M510.725,364.976
				c8.143,3.227,16.285,6.455,24.428,9.682c1.287-3.457,2.513-6.97,3.674-10.54c1.161-3.572,1.627-6.277,1.47-8.03
				c-0.157-1.757-1.348-2.964-3.55-3.623c-8.375-2.516-16.75-5.032-25.125-7.548c-0.921,3.248-1.901,6.447-2.937,9.595
				c-0.985,2.99-1.447,5.241-1.332,6.821C507.468,362.911,508.585,364.125,510.725,364.976z"/>
		</g>
	</g>
	<g>
		<path style="fill:#FFFFFF;" d="M273.997,324.2c0.277,0,0.517,0.146,0.719,0.438c0.202,0.292,0.302,0.562,0.302,0.809
			c0,0.427-0.183,0.927-0.548,1.5c-0.366,0.573-0.864,1.152-1.494,1.736c-0.63,0.584-1.375,1.152-2.231,1.702
			c-0.857,0.551-1.765,1.017-2.723,1.399c-1.387,0.539-2.925,1.056-4.614,1.55c-1.69,0.495-3.474,0.933-5.352,1.315
			c-1.879,0.382-3.833,0.713-5.862,0.994c-2.03,0.281-4.066,0.489-6.108,0.624c-0.126,0-0.259,0.214-0.397,0.64
			c-0.139,0.427-0.283,0.967-0.435,1.618c-0.151,0.652-0.297,1.377-0.435,2.174c-0.139,0.798-0.271,1.573-0.397,2.326
			c-0.126,0.753-0.24,1.433-0.34,2.04c-0.101,0.606-0.177,1.045-0.227,1.314c-0.227,1.213-0.422,2.287-0.586,3.219
			c-0.164,0.933-0.302,1.81-0.416,2.629c-0.113,0.821-0.208,1.613-0.284,2.376c-0.076,0.765-0.126,1.574-0.151,2.427
			c-0.025,0.472-0.032,0.894-0.019,1.264c0.012,0.371,0.019,0.736,0.019,1.096c0,0.36-0.007,0.725-0.019,1.096
			c-0.013,0.371-0.044,0.792-0.095,1.264c-0.025,0.135-0.183,0.326-0.473,0.573c-0.29,0.248-0.624,0.489-1.002,0.725
			c-0.378,0.236-0.75,0.443-1.116,0.624c-0.366,0.18-0.624,0.27-0.775,0.27c-0.631,0-1.148-0.186-1.551-0.556
			c-0.404-0.371-0.719-0.792-0.945-1.264c-0.227-0.472-0.378-0.932-0.454-1.382c-0.076-0.449-0.113-0.752-0.113-0.91
			c0-1.82,0.138-3.573,0.416-5.259c0.277-1.685,0.611-3.399,1.002-5.141c0.391-1.741,0.794-3.551,1.21-5.427
			s0.775-3.927,1.078-6.152c-0.202-0.404-0.51-0.663-0.926-0.775s-0.839-0.169-1.267-0.169c-0.151,0-0.297,0.006-0.435,0.017
			c-0.139,0.012-0.271,0.017-0.397,0.017c-0.126,0-0.454,0.017-0.983,0.051s-1.16,0.067-1.891,0.101
			c-0.731,0.034-1.507,0.079-2.326,0.135c-0.82,0.057-1.588,0.101-2.307,0.135s-1.343,0.067-1.872,0.101
			c-0.53,0.034-0.857,0.051-0.983,0.051c-0.403,0-0.8-0.112-1.191-0.337c-0.391-0.225-0.737-0.489-1.04-0.792
			c-0.303-0.303-0.548-0.618-0.737-0.944c-0.189-0.325-0.284-0.601-0.284-0.826c0-0.449,0.094-0.837,0.284-1.163
			c0.189-0.326,0.429-0.59,0.718-0.792c0.291-0.203,0.618-0.354,0.983-0.455c0.366-0.102,0.725-0.152,1.078-0.152
			c0.378,0,0.933-0.011,1.664-0.034c0.731-0.022,1.538-0.051,2.42-0.084c0.882-0.034,1.802-0.073,2.761-0.118
			c0.958-0.045,1.854-0.102,2.686-0.169s1.563-0.135,2.193-0.202c0.63-0.067,1.071-0.135,1.324-0.202
			c0.529-0.157,1.084-0.651,1.664-1.483c0.58-0.831,1.097-2.101,1.551-3.809c0.1-0.382,0.227-0.921,0.378-1.618
			c0.151-0.696,0.315-1.472,0.492-2.326c0.176-0.854,0.353-1.736,0.53-2.646c0.176-0.91,0.34-1.775,0.492-2.596
			c0.151-0.82,0.271-1.551,0.359-2.191c0.088-0.64,0.145-1.118,0.17-1.433c0-0.292,0.132-0.618,0.397-0.978
			c0.265-0.359,0.573-0.691,0.927-0.994c0.353-0.304,0.706-0.557,1.059-0.759c0.353-0.202,0.617-0.303,0.794-0.303
			c0.378,0,0.744,0.113,1.097,0.337c0.353,0.225,0.662,0.489,0.927,0.792c0.265,0.303,0.473,0.612,0.624,0.927
			c0.151,0.315,0.227,0.551,0.227,0.708c0,0.113-0.032,0.366-0.095,0.758c-0.063,0.394-0.146,0.872-0.246,1.433
			c-0.101,0.562-0.221,1.168-0.359,1.82c-0.139,0.652-0.265,1.27-0.378,1.854c-0.113,0.584-0.221,1.107-0.321,1.567
			c-0.101,0.461-0.177,0.781-0.227,0.961c-0.353,1.371-0.649,2.506-0.889,3.404c-0.24,0.899-0.429,1.652-0.567,2.259
			c-0.139,0.607-0.24,1.096-0.302,1.466c-0.063,0.371-0.095,0.703-0.095,0.995c0,0.517,0.076,0.865,0.227,1.045
			c0.151,0.18,0.403,0.281,0.756,0.303c0.1,0,0.504-0.034,1.21-0.101c0.706-0.067,1.607-0.168,2.704-0.303
			c1.097-0.135,2.313-0.303,3.65-0.506c1.336-0.202,2.685-0.432,4.047-0.691c1.361-0.258,2.672-0.544,3.933-0.859
			c1.261-0.314,2.357-0.663,3.291-1.045c0.908-0.382,1.746-0.752,2.515-1.112c0.769-0.359,1.449-0.685,2.042-0.978
			c0.592-0.292,1.084-0.522,1.475-0.691C273.498,324.284,273.794,324.2,273.997,324.2z"/>
		<path style="fill:#FFFFFF;" d="M322.361,346.112c0,0.248-0.019,0.539-0.057,0.876c-0.038,0.337-0.113,0.686-0.227,1.045
			c-0.114,0.36-0.271,0.714-0.474,1.062c-0.201,0.349-0.453,0.657-0.756,0.927c-1.513,1.281-3.082,2.444-4.708,3.489
			c-1.627,1.045-3.247,1.933-4.86,2.663c-1.614,0.73-3.19,1.298-4.728,1.702c-1.539,0.405-2.976,0.607-4.312,0.607
			c-1.841,0-3.373-0.309-4.595-0.927c-1.223-0.618-2.2-1.427-2.931-2.427c-0.731-1-1.248-2.146-1.551-3.438
			c-0.302-1.292-0.454-2.613-0.454-3.961c0-0.45,0.019-0.972,0.057-1.568c0.038-0.595,0.082-1.213,0.132-1.854
			c0.05-0.64,0.095-1.264,0.132-1.871c0.038-0.607,0.057-1.157,0.057-1.652c0-0.696-0.057-1.298-0.17-1.804
			c-0.114-0.505-0.322-0.859-0.624-1.062c-0.53,0.248-1.186,0.731-1.967,1.45c-0.782,0.72-1.645,1.63-2.591,2.73
			c-0.945,1.102-1.954,2.372-3.025,3.81c-1.072,1.438-2.15,2.989-3.234,4.652c-0.681,1.034-1.387,2.113-2.118,3.236
			c-0.731,1.124-1.456,2.219-2.175,3.287s-1.431,2.084-2.137,3.051c-0.706,0.966-1.375,1.815-2.004,2.545
			c-0.631,0.73-1.21,1.309-1.74,1.736c-0.53,0.426-0.971,0.64-1.324,0.64c-0.454,0-0.826-0.034-1.116-0.101
			c-0.29-0.067-0.542-0.135-0.756-0.202c-0.215-0.067-0.404-0.135-0.567-0.202c-0.165-0.067-0.334-0.101-0.511-0.101
			c-0.202-0.629-0.353-1.382-0.454-2.259c-0.101-0.876-0.177-1.758-0.227-2.646c-0.051-0.888-0.082-1.708-0.095-2.461
			s-0.019-1.32-0.019-1.703c0-3.011,0.246-6.18,0.737-9.506s1.078-6.815,1.759-10.467c0.681-3.652,1.386-7.472,2.118-11.461
			c0.731-3.989,1.336-8.163,1.815-12.523c0.151-0.629,0.378-1.146,0.681-1.55c0.303-0.405,0.643-0.719,1.021-0.944
			c0.378-0.225,0.756-0.376,1.134-0.455c0.378-0.079,0.719-0.118,1.021-0.118c0.756,0,1.361,0.349,1.815,1.045
			c0.454,0.697,0.681,1.63,0.681,2.798c0,0.315-0.044,0.798-0.132,1.45c-0.089,0.652-0.215,1.388-0.378,2.208
			c-0.164,0.821-0.34,1.697-0.529,2.629c-0.189,0.933-0.391,1.86-0.605,2.781s-0.416,1.803-0.605,2.646s-0.359,1.567-0.511,2.174
			c-0.605,2.427-1.153,4.894-1.645,7.399c-0.492,2.506-0.92,4.854-1.286,7.045c-0.366,2.191-0.649,4.146-0.851,5.866
			c-0.202,1.719-0.303,3.006-0.303,3.86c0,0.225,0,0.539,0,0.944c0,0.404,0.006,0.82,0.019,1.247
			c0.012,0.427,0.031,0.826,0.057,1.197c0.025,0.371,0.062,0.624,0.114,0.758c0.932-0.629,1.834-1.427,2.704-2.393
			c0.87-0.966,1.764-2.073,2.685-3.321c0.92-1.247,1.91-2.606,2.969-4.079c1.059-1.472,2.256-3.028,3.593-4.669
			c0.706-0.899,1.544-1.865,2.515-2.899c0.971-1.033,2.011-1.994,3.12-2.882s2.275-1.624,3.499-2.208
			c1.223-0.584,2.439-0.876,3.65-0.876c0.554,0,1.002,0.416,1.342,1.247c0.34,0.832,0.511,1.911,0.511,3.236
			c0,0.36-0.057,0.905-0.17,1.635c-0.113,0.73-0.233,1.54-0.359,2.427c-0.126,0.888-0.246,1.803-0.359,2.748
			c-0.114,0.944-0.17,1.82-0.17,2.629c0,0.652,0.044,1.433,0.132,2.343s0.315,1.781,0.681,2.612c0.365,0.832,0.907,1.54,1.626,2.124
			s1.721,0.876,3.007,0.876c2.118,0,4.513-0.45,7.186-1.349c2.673-0.898,5.497-2.348,8.473-4.349
			c0.302-0.202,0.586-0.41,0.851-0.624c0.265-0.213,0.504-0.41,0.718-0.59c0.215-0.18,0.41-0.332,0.587-0.455
			c0.176-0.124,0.314-0.186,0.416-0.186c0.024,0,0.081,0.034,0.17,0.101c0.088,0.067,0.176,0.141,0.265,0.219
			c0.088,0.079,0.17,0.157,0.246,0.236C322.323,346.039,322.361,346.089,322.361,346.112z"/>
		<path style="fill:#FFFFFF;" d="M353.518,346.247c0,0.787-0.328,1.641-0.983,2.562c-0.656,0.922-1.589,1.955-2.799,3.101
			c-1.387,1.304-2.912,2.512-4.576,3.624s-3.379,2.079-5.144,2.899c-1.766,0.821-3.556,1.466-5.371,1.938
			c-1.814,0.472-3.567,0.708-5.257,0.708c-3.958,0-7.021-1.135-9.189-3.405c-2.169-2.27-3.253-5.596-3.253-9.978
			c0-1.394,0.139-2.815,0.416-4.265c0.277-1.449,0.687-2.882,1.229-4.298c0.542-1.416,1.223-2.787,2.042-4.113
			c0.819-1.326,1.771-2.562,2.855-3.708c0.681-0.696,1.437-1.404,2.269-2.124s1.753-1.365,2.762-1.938
			c1.008-0.573,2.111-1.039,3.309-1.399c1.197-0.359,2.502-0.54,3.915-0.54c1.008,0,1.915,0.174,2.723,0.522
			c0.807,0.349,1.487,0.792,2.042,1.332c0.555,0.54,0.978,1.146,1.268,1.82c0.289,0.674,0.435,1.337,0.435,1.989
			c0,1.371-0.416,2.759-1.248,4.163c-0.832,1.405-2.005,2.82-3.518,4.248s-3.328,2.854-5.445,4.281
			c-2.118,1.427-4.477,2.848-7.073,4.264c-0.353,0.18-0.706,0.376-1.059,0.59c-0.354,0.214-0.529,0.478-0.529,0.792
			c0,0.674,0.101,1.382,0.303,2.124c0.201,0.742,0.567,1.421,1.097,2.04s1.241,1.129,2.137,1.534
			c0.895,0.404,2.036,0.607,3.423,0.607c1.765,0,3.561-0.253,5.39-0.759c1.827-0.505,4.085-2.143,5.838-3.042
			c1.752-0.898,2.986-1.031,4.638-2.267s3.196-2.573,4.633-4.012c0.807-0.786,1.45-1.18,1.929-1.18c0.277,0,0.479,0.146,0.605,0.438
			C353.454,345.089,353.518,345.572,353.518,346.247z M335.969,331.853c0-0.247-0.075-0.472-0.227-0.674s-0.335-0.371-0.549-0.506
			c-0.215-0.135-0.441-0.241-0.681-0.32c-0.24-0.078-0.448-0.118-0.624-0.118c-1.109,0-2.244,0.354-3.404,1.062
			c-1.159,0.708-2.244,1.691-3.252,2.95c-1.009,1.259-1.892,2.753-2.647,4.483c-0.757,1.731-1.273,3.607-1.551,5.63
			c0.353-0.202,0.819-0.494,1.399-0.876c0.58-0.382,1.204-0.803,1.872-1.264c0.668-0.46,1.336-0.927,2.005-1.399
			c0.667-0.472,1.267-0.91,1.796-1.315c1.159-0.876,2.118-1.657,2.874-2.343c0.757-0.685,1.355-1.314,1.797-1.888
			c0.44-0.573,0.75-1.135,0.927-1.686C335.88,333.038,335.969,332.459,335.969,331.853z"/>
	</g>
	<g>
		<g>
			<path style="fill:#FFFFFF;" d="M226.988,332.379c-1.551-0.255-3.164,0.031-4.708,0.23c-2.846,0.367-5.682,0.83-8.471,1.515
				c-2.829,0.695-5.492,1.687-8.068,3.049c-3.254,1.721-6.535,3.731-8.973,6.537c-2.558,2.944-4.048,6.521-5.134,10.23
				c-1.148,3.921-1.858,7.972-2.199,12.042c-0.663,7.923,0.028,16.665,3.245,24.012c2.901,6.625,9.205,11.171,15.55,14.223
				c5.93,2.853,12.277,4.623,18.65,6.171c12.008,2.918,25.352,5.177,34.513,14.211c10.97,10.817,13.287,27.012,14.24,41.669
				c0.136,2.085,0.25,4.172,0.364,6.258c0.08,1.456,1.184,2.7,2.7,2.7c1.4,0,2.78-1.237,2.7-2.7
				c-0.835-15.27-1.872-31.437-10.451-44.639c-3.701-5.696-8.647-10.383-14.598-13.671c-5.526-3.052-11.61-4.966-17.699-6.532
				c-11.843-3.047-24.991-4.806-34.946-12.5c-2.689-2.078-4.969-4.647-6.309-7.797c-1.433-3.368-2.1-7.18-2.467-10.805
				c-0.779-7.688-0.011-15.52,2.428-22.861c1.093-3.289,2.738-6.085,5.422-8.316c1.295-1.077,2.77-1.955,4.235-2.778
				c0.721-0.405,1.451-0.793,2.185-1.173c0.3-0.155,0.6-0.312,0.905-0.458c0.109-0.052,0.79-0.345,0.505-0.229
				c2.506-1.015,5.189-1.623,7.837-2.127c1.289-0.246,2.585-0.458,3.885-0.637c0.327-0.045,0.007,0-0.05,0.007
				c0.127-0.016,0.255-0.033,0.382-0.048c0.241-0.028,0.482-0.058,0.724-0.086c0.447-0.05,0.895-0.097,1.344-0.135
				c0.324-0.027,0.648-0.04,0.972-0.065c0.35-0.027,1.028,0.105-0.15-0.089c1.437,0.236,2.906-0.375,3.321-1.886
				C229.228,334.41,228.435,332.617,226.988,332.379L226.988,332.379z"/>
		</g>
	</g>
	<g>
		<g>
			<path style="fill:#FFFFFF;" d="M343.812,355.928c2.918-2.365,6.221-4.199,9.16-6.542c2.834-2.26,5.454-4.236,9.042-5.104
				c3.632-0.879,7.426-1.252,11.145-1.548c3.62-0.288,7.404-0.619,10.942,0.394c13.278,3.801,16.747,20.357,15.306,32.289
				c-1.563,12.941-9.205,24.644-20.325,31.399c-11.628,7.064-26.962,6.558-37.046,16.407c-5.814,5.678-7.062,13.513-8.165,21.202
				c-1.25,8.712-2.443,17.458-2.45,26.276c-0.003,2.896,4.497,2.9,4.5,0c0.007-8.09,1.011-16.12,2.152-24.115
				c0.972-6.811,1.61-14.397,6.597-19.626c4.727-4.956,11.45-7.179,17.855-9.033c6.887-1.994,13.741-3.931,19.83-7.851
				c11.883-7.651,19.746-20.214,21.499-34.227c1.653-13.21-2.265-29.911-15.512-35.913c-3.914-1.773-8.03-2.114-12.282-1.894
				c-4.504,0.233-9.041,0.707-13.477,1.53c-2.116,0.393-4.172,0.976-6.118,1.908c-1.917,0.919-3.609,2.239-5.256,3.567
				c-3.403,2.744-7.183,4.947-10.578,7.699c-0.945,0.766-0.796,2.386,0,3.182C341.564,356.862,342.865,356.696,343.812,355.928
				L343.812,355.928z"/>
		</g>
	</g>
	<path style="fill:#FFFFFF;" d="M364.023,654.817h-131c-13.531,0-24.5-10.969-24.5-24.5v-2c0-13.531,10.969-24.5,24.5-24.5h131
		c13.531,0,24.5,10.969,24.5,24.5v2C388.523,643.848,377.554,654.817,364.023,654.817z"/>
	<path style="fill:#FFFFFF;" d="M364.023,693.817h-131c-13.531,0-24.5-10.969-24.5-24.5v-2c0-13.531,10.969-24.5,24.5-24.5h131
		c13.531,0,24.5,10.969,24.5,24.5v2C388.523,682.848,377.554,693.817,364.023,693.817z"/>
	<path style="fill:#FFFFFF;" d="M364.023,734.817h-131c-13.531,0-24.5-10.969-24.5-24.5v-2c0-13.531,10.969-24.5,24.5-24.5h131
		c13.531,0,24.5,10.969,24.5,24.5v2C388.523,723.848,377.554,734.817,364.023,734.817z"/>
	<path style="fill:#FFFFFF;" d="M298.854,778.817c41.421,0,75-15.67,75-35h-150C223.854,763.147,257.433,778.817,298.854,778.817z"
		/>
	<g>
		<path style="fill:#FFFFFF;" d="M230.669,615.114h27.973v6.191h-16.254v5.255h14.364v6.191h-14.364v11.339h-11.719V615.114z"/>
		<path style="fill:#FFFFFF;" d="M308.537,641.102c-3.078,2.34-7.668,3.492-13.5,3.492s-10.368-1.152-13.446-3.492
			c-3.564-2.699-4.752-6.551-4.752-11.519c0-4.896,1.188-8.782,4.752-11.482c3.078-2.34,7.614-3.491,13.446-3.491
			s10.422,1.151,13.5,3.491c3.51,2.7,4.698,6.587,4.698,11.482C313.235,634.551,312.047,638.403,308.537,641.102z M299.789,622.384
			c-1.134-1.079-2.646-1.548-4.752-1.548c-2.106,0-3.564,0.469-4.698,1.548c-1.351,1.296-1.782,3.312-1.782,7.199
			c0,3.96,0.432,5.939,1.782,7.271c1.134,1.08,2.592,1.548,4.698,1.548c2.105,0,3.618-0.468,4.752-1.548
			c1.296-1.332,1.728-3.312,1.728-7.271C301.517,625.696,301.085,623.68,299.789,622.384z"/>
		<path style="fill:#FFFFFF;" d="M353.842,637.791c-0.216-2.592-1.512-3.419-4.697-3.419h-4.536v9.719H332.89v-28.977h18.847
			c9.45,0,14.364,3.527,14.364,8.854c0,3.924-2.916,6.407-7.398,7.271c4.482,0.54,6.265,2.376,6.643,6.191l0.378,3.923
			c0.107,1.188,0.432,2.052,0.918,2.736h-11.664c-0.486-0.612-0.702-1.729-0.811-2.7L353.842,637.791z M349.36,628.18
			c3.294,0,5.021-1.008,5.021-3.42c0-2.483-1.728-3.455-5.021-3.455h-4.752v6.875H349.36z"/>
		<path style="fill:#FFFFFF;" d="M248.938,655.114h10.342l-11.372,17.565v11.411h-10.202v-11.411l-11.372-17.565h10.343
			l6.131,11.158L248.938,655.114z"/>
		<path style="fill:#FFFFFF;" d="M290.544,681.102c-2.668,2.34-6.646,3.492-11.7,3.492c-5.054,0-8.985-1.152-11.652-3.492
			c-3.089-2.699-4.118-6.551-4.118-11.519c0-4.896,1.029-8.782,4.118-11.482c2.667-2.34,6.599-3.491,11.652-3.491
			c5.055,0,9.032,1.151,11.7,3.491c3.042,2.7,4.071,6.587,4.071,11.482C294.615,674.551,293.586,678.403,290.544,681.102z
			 M282.962,662.384c-0.982-1.079-2.293-1.548-4.118-1.548s-3.089,0.469-4.071,1.548c-1.17,1.296-1.544,3.312-1.544,7.199
			c0,3.96,0.374,5.939,1.544,7.271c0.982,1.08,2.246,1.548,4.071,1.548s3.136-0.468,4.118-1.548
			c1.123-1.332,1.498-3.312,1.498-7.271C284.46,665.696,284.085,663.68,282.962,662.384z"/>
		<path style="fill:#FFFFFF;" d="M301.869,673.255v-18.142h10.108v18.609c0,3.275,1.778,4.68,4.914,4.68s4.914-1.404,4.914-4.68
			v-18.609h10.108v18.142c0,7.019-4.773,11.339-15.022,11.339S301.869,680.274,301.869,673.255z"/>
		<path style="fill:#FFFFFF;" d="M357.981,677.791c-0.188-2.592-1.311-3.419-4.071-3.419h-3.932v9.719h-10.155v-28.977h16.333
			c8.189,0,12.448,3.527,12.448,8.854c0,3.924-2.526,6.407-6.411,7.271c3.885,0.54,5.429,2.376,5.756,6.191l0.328,3.923
			c0.094,1.188,0.374,2.052,0.796,2.736h-10.109c-0.421-0.612-0.608-1.729-0.701-2.7L357.981,677.791z M354.098,668.18
			c2.854,0,4.352-1.008,4.352-3.42c0-2.483-1.497-3.455-4.352-3.455h-4.119v6.875H354.098z"/>
		<path style="fill:#FFFFFF;" d="M246.01,695.114h9.149l-10.06,17.565v11.411h-9.025v-11.411l-10.059-17.565h9.148l5.423,11.158
			L246.01,695.114z"/>
		<path style="fill:#FFFFFF;" d="M279.709,721.102c-2.359,2.34-5.878,3.492-10.349,3.492c-4.472,0-7.948-1.152-10.309-3.492
			c-2.731-2.699-3.643-6.551-3.643-11.519c0-4.896,0.911-8.782,3.643-11.482c2.36-2.34,5.837-3.491,10.309-3.491
			c4.471,0,7.989,1.151,10.349,3.491c2.691,2.7,3.602,6.587,3.602,11.482C283.31,714.551,282.4,718.403,279.709,721.102z
			 M273.003,702.384c-0.869-1.079-2.028-1.548-3.643-1.548c-1.615,0-2.732,0.469-3.602,1.548c-1.035,1.296-1.366,3.312-1.366,7.199
			c0,3.96,0.331,5.939,1.366,7.271c0.869,1.08,1.986,1.548,3.602,1.548c1.614,0,2.773-0.468,3.643-1.548
			c0.993-1.332,1.324-3.312,1.324-7.271C274.327,705.696,273.996,703.68,273.003,702.384z"/>
		<path style="fill:#FFFFFF;" d="M286.624,713.255v-18.142h8.942v18.609c0,3.275,1.573,4.68,4.347,4.68s4.347-1.404,4.347-4.68
			v-18.609h8.941v18.142c0,7.019-4.223,11.339-13.288,11.339C290.847,724.594,286.624,720.274,286.624,713.255z"/>
		<path style="fill:#FFFFFF;" d="M315.521,695.114h25.666v6.191h-8.32v22.785h-8.983v-22.785h-8.362V695.114z"/>
		<path style="fill:#FFFFFF;" d="M359.818,712.355h-7.162v11.735h-8.983v-28.977h8.983v11.015h7.162v-11.015h8.983v28.977h-8.983
			V712.355z"/>
	</g>
</g>
</svg>
