<svg width="548" height="728" viewBox="0 0 548 728" fill="none" xmlns="http://www.w3.org/2000/svg">
<path d="M222.952 725.601C371.49 746.808 514.759 602.106 542.952 402.399C550.179 351.202 549.142 301.361 541.101 255.187C550.58 324.274 542.171 401.244 513.144 475.48C443.015 654.835 279.096 750.32 147.02 688.752C116.383 674.47 90.1499 652.991 68.8024 626.185C107.622 680.245 160.828 716.731 222.952 725.601Z" fill="white"/>
<path d="M479.195 101.813C440.376 47.7534 387.17 11.2685 325.047 2.39896C176.508 -18.8083 33.2395 125.894 5.04674 325.601C-2.18158 376.803 -1.14351 426.65 6.90071 472.829C-2.58184 403.737 5.82641 326.762 34.8553 252.52C104.984 73.1649 268.903 -22.3202 400.979 39.2484C431.616 53.5299 457.848 75.0074 479.195 101.813Z" fill="white"/>
<path fill-rule="evenodd" clip-rule="evenodd" d="M263.298 369.207C263.294 367.546 263.291 365.878 263.291 364.203C264.374 365.31 265.469 366.424 266.574 367.543C266.578 368.695 266.582 369.841 266.589 370.982C266.074 370.98 265.56 370.976 265.047 370.973C264.462 370.383 263.879 369.795 263.298 369.207ZM263.304 370.96C263.302 370.377 263.3 369.792 263.298 369.207C262.46 368.359 261.625 367.512 260.795 366.668C261.604 365.833 262.42 364.995 263.242 364.153C263.259 364.17 263.275 364.186 263.291 364.203C263.291 364.17 263.291 364.136 263.291 364.103C264.374 362.996 265.468 361.882 266.574 360.763C266.571 361.838 266.57 362.917 266.57 364C266.57 365.186 266.571 366.367 266.574 367.543C267.18 368.155 267.789 368.77 268.401 369.385C268.937 369.925 269.473 370.462 270.008 370.997C268.863 370.993 267.723 370.989 266.589 370.982L266.592 371.626C266.594 371.929 266.596 372.231 266.598 372.533C266.394 372.329 266.19 372.124 265.986 371.918C265.672 371.603 265.359 371.288 265.047 370.973C264.464 370.969 263.883 370.965 263.304 370.96ZM263.319 374.268C263.313 373.169 263.308 372.066 263.304 370.96C261.09 370.942 258.9 370.918 256.735 370.888C258.066 369.494 259.42 368.087 260.795 366.668C259.993 365.851 259.194 365.037 258.4 364.224C259.217 363.389 260.038 362.55 260.864 361.71C261.65 362.521 262.443 363.335 263.242 364.153C263.259 364.136 263.275 364.12 263.291 364.103V364C263.291 362.407 263.293 360.821 263.297 359.241C264.026 358.504 264.758 357.765 265.493 357.025C265.858 357.022 266.223 357.02 266.589 357.018C266.582 358.26 266.577 359.508 266.574 360.763C267.205 360.124 267.84 359.483 268.479 358.841C269.091 358.225 269.702 357.612 270.312 357.003C271.38 357 272.453 356.999 273.53 356.999C274.71 356.999 275.884 357.001 277.053 357.004C277.663 357.613 278.273 358.225 278.886 358.841C279.422 359.381 279.957 359.92 280.489 360.457C280.492 361.633 280.493 362.814 280.493 364C280.493 365.289 280.491 366.572 280.488 367.849C279.982 368.36 279.474 368.872 278.964 369.385C278.427 369.924 277.892 370.461 277.358 370.996C276.088 371 274.812 371.002 273.53 371.002C272.351 371.002 271.176 371 270.008 370.997C271.118 372.108 272.224 373.208 273.324 374.296C271.658 374.296 270 374.293 268.349 374.289C267.766 373.706 267.183 373.121 266.598 372.533C266.602 373.118 266.606 373.701 266.611 374.283C265.51 374.279 264.413 374.274 263.319 374.268ZM263.405 384.63C263.367 381.216 263.338 377.76 263.319 374.268C260.047 374.25 256.806 374.223 253.602 374.188C254.631 373.097 255.676 371.997 256.735 370.888C255.145 370.867 253.57 370.842 252.009 370.814C254.105 368.637 256.236 366.439 258.4 364.224C256.09 361.86 253.816 359.515 251.583 357.194C253.188 357.165 254.809 357.139 256.445 357.116C257.892 358.632 259.366 360.164 260.864 361.71C261.671 360.889 262.482 360.066 263.297 359.241C263.299 358.506 263.301 357.773 263.304 357.041C264.031 357.035 264.761 357.029 265.493 357.025C265.696 356.821 265.898 356.617 266.101 356.412L266.595 355.916C266.593 356.283 266.591 356.65 266.589 357.018C267.823 357.011 269.064 357.006 270.312 357.003C271.424 355.892 272.53 354.792 273.63 353.704C273.665 353.704 273.7 353.704 273.734 353.704C274.835 354.792 275.941 355.892 277.053 357.004C278.199 357.007 279.34 357.012 280.474 357.018C280.481 358.159 280.485 359.305 280.489 360.457C281.593 361.574 282.686 362.685 283.767 363.79C283.767 363.86 283.767 363.93 283.767 364L283.767 364.516C282.686 365.621 281.592 366.732 280.488 367.849C280.484 368.898 280.48 369.942 280.474 370.982C279.44 370.988 278.401 370.993 277.358 370.996C276.247 372.107 275.141 373.207 274.041 374.296L273.53 374.296C273.461 374.296 273.393 374.296 273.324 374.296C273.443 374.414 273.563 374.532 273.682 374.65C272.845 375.478 272.011 376.299 271.181 377.112C270.24 376.177 269.296 375.235 268.349 374.289C267.769 374.287 267.189 374.285 266.611 374.283C266.631 376.711 266.657 379.111 266.69 381.479C265.586 382.545 264.491 383.595 263.405 384.63ZM263.469 389.706C263.445 388.025 263.424 386.333 263.405 384.63C239.312 407.603 220.105 422.854 217.708 420.443C215.301 418.023 230.601 398.557 253.602 374.188C252.002 374.17 250.412 374.151 248.831 374.129C249.881 373.03 250.94 371.925 252.009 370.814C210.896 370.084 180.301 367.311 180.301 364C180.301 360.701 210.685 357.935 251.583 357.194C250.514 356.083 249.455 354.977 248.405 353.876C250.031 353.854 251.668 353.833 253.314 353.815C254.342 354.906 255.387 356.007 256.445 357.116C258.704 357.085 260.991 357.06 263.304 357.041C263.308 355.934 263.313 354.831 263.319 353.732C264.413 353.726 265.51 353.721 266.611 353.717C266.605 354.447 266.6 355.181 266.595 355.916C267.33 355.178 268.064 354.442 268.797 353.71C270.368 353.706 271.946 353.704 273.53 353.704H273.63C273.648 353.687 273.665 353.67 273.682 353.653C273.699 353.67 273.717 353.687 273.734 353.704C275.4 353.704 277.059 353.707 278.711 353.711C279.294 354.295 279.879 354.881 280.465 355.468C280.468 355.984 280.472 356.5 280.474 357.018C280.989 357.021 281.503 357.024 282.016 357.028C282.599 357.615 283.181 358.202 283.76 358.787C283.765 360.448 283.767 362.115 283.767 363.79C283.886 363.911 284.004 364.032 284.122 364.153C284.004 364.274 283.886 364.395 283.767 364.516C283.767 366.239 283.764 367.954 283.759 369.661C283.328 370.097 282.896 370.533 282.462 370.97C281.802 370.975 281.139 370.979 280.474 370.982C280.471 371.651 280.467 372.317 280.462 372.981C280.027 373.418 279.592 373.853 279.158 374.287C277.46 374.293 275.754 374.295 274.041 374.296C273.921 374.414 273.802 374.532 273.682 374.65C274.544 375.502 275.402 376.346 276.255 377.182C275.419 378.013 274.585 378.84 273.753 379.662C272.898 378.817 272.041 377.967 271.181 377.112C269.67 378.593 268.172 380.049 266.69 381.479C266.714 383.171 266.741 384.848 266.771 386.507C265.665 387.583 264.564 388.649 263.469 389.706ZM283.596 389.279C282.714 453.353 278.542 501.877 273.529 501.877C268.527 501.877 264.363 453.568 263.469 389.706C225.803 426.048 195.122 450.708 191.438 447.004C187.741 443.285 212.465 412.207 248.831 374.129C184.901 373.256 136.429 369.053 136.429 364C136.429 358.958 184.686 354.763 248.405 353.876C212.209 315.947 187.636 285.035 191.323 281.327C195.01 277.619 225.747 302.33 263.463 338.73C263.44 340.366 263.42 342.012 263.402 343.667C239.274 320.655 220.029 305.37 217.63 307.783C215.231 310.196 230.43 329.55 253.314 353.815C256.612 353.778 259.949 353.751 263.319 353.732C263.338 350.341 263.365 346.985 263.402 343.667C264.487 344.702 265.582 345.753 266.686 346.818C266.655 349.09 266.63 351.391 266.611 353.717C267.338 353.714 268.067 353.712 268.797 353.71C269.617 352.889 270.436 352.073 271.253 351.261C272.059 352.052 272.869 352.849 273.682 353.653C274.519 352.825 275.353 352.005 276.183 351.191C277.023 352.027 277.866 352.867 278.711 353.711C279.292 353.713 279.872 353.715 280.452 353.717C280.457 354.299 280.461 354.883 280.465 355.468C280.778 355.782 281.091 356.097 281.405 356.412C281.609 356.618 281.812 356.823 282.016 357.028C282.597 357.031 283.177 357.036 283.754 357.041C283.757 357.622 283.758 358.204 283.76 358.787C284.702 359.74 285.639 360.69 286.57 361.638C285.762 362.472 284.945 363.311 284.122 364.153C284.969 365.019 285.808 365.882 286.64 366.74C285.685 367.711 284.725 368.685 283.759 369.661C283.757 370.095 283.756 370.528 283.754 370.96C283.325 370.963 282.894 370.967 282.462 370.97C282.149 371.286 281.835 371.602 281.52 371.918C281.167 372.273 280.814 372.628 280.462 372.981C280.459 373.416 280.456 373.85 280.452 374.283L279.158 374.287C278.188 375.258 277.22 376.223 276.255 377.182C277.641 378.54 279.015 379.877 280.377 381.192C280.354 382.838 280.328 384.469 280.299 386.083C278.136 383.977 275.953 381.836 273.753 379.662C271.405 381.982 269.077 384.265 266.771 386.507C267.52 427.417 270.263 457.757 273.531 457.757C276.812 457.757 279.562 427.207 280.299 386.083C281.403 387.158 282.502 388.224 283.596 389.279ZM283.657 384.341C282.573 383.307 281.479 382.257 280.377 381.192C280.408 378.917 280.433 376.613 280.452 374.283C281.551 374.279 282.647 374.274 283.739 374.268C283.721 377.661 283.693 381.021 283.657 384.341ZM293.759 374.185C290.456 374.221 287.115 374.249 283.739 374.268C283.745 373.169 283.75 372.066 283.754 370.96C286.071 370.941 288.363 370.916 290.626 370.884C291.685 371.993 292.73 373.094 293.759 374.185ZM298.67 374.123C335.038 412.204 359.765 443.285 356.068 447.004C352.37 450.723 321.463 425.855 283.596 389.279C283.618 387.643 283.638 385.997 283.657 384.341C307.891 407.475 327.25 422.864 329.656 420.443C332.063 418.023 316.762 398.556 293.759 374.185C295.406 374.166 297.043 374.146 298.67 374.123ZM295.489 370.806C296.559 371.917 297.619 373.023 298.67 374.123C362.382 373.237 410.631 369.041 410.631 364C410.631 358.97 362.597 354.782 299.095 353.883C335.294 315.95 359.87 285.035 356.183 281.327C352.482 277.605 321.518 302.524 283.602 339.157C282.733 274.867 278.554 226.123 273.529 226.123C268.516 226.123 264.344 274.651 263.463 338.73C264.557 339.787 265.658 340.853 266.764 341.929C266.735 343.543 266.709 345.173 266.686 346.818C268.193 348.273 269.716 349.754 271.253 351.261C272.089 350.431 272.922 349.604 273.753 348.783C274.561 349.581 275.371 350.384 276.183 351.191C277.594 349.808 278.994 348.445 280.381 347.106C280.41 349.284 280.434 351.489 280.452 353.717C281.551 353.721 282.647 353.726 283.739 353.732C283.745 354.831 283.75 355.934 283.754 357.041C286.17 357.06 288.558 357.087 290.915 357.12C289.493 358.611 288.044 360.118 286.57 361.638C287.42 362.502 288.265 363.365 289.106 364.224C288.288 365.061 287.466 365.899 286.64 366.74C287.989 368.134 289.318 369.515 290.626 370.884C292.262 370.861 293.884 370.835 295.489 370.806ZM295.915 357.202C294.265 357.172 292.598 357.144 290.915 357.12C291.974 356.011 293.019 354.91 294.048 353.818C295.741 353.838 297.423 353.859 299.095 353.883C298.045 354.983 296.985 356.09 295.915 357.202ZM283.66 343.956C283.642 342.347 283.623 340.747 283.602 339.157C282.509 340.213 281.411 341.278 280.307 342.353C279.581 301.009 276.823 270.244 273.531 270.244C270.251 270.244 267.501 300.799 266.764 341.929C269.071 344.173 271.403 346.459 273.753 348.783C275.956 346.606 278.141 344.461 280.307 342.353C280.334 343.922 280.359 345.507 280.381 347.106C281.483 346.041 282.576 344.991 283.66 343.956ZM283.66 343.956C307.929 320.783 327.325 305.36 329.735 307.783C332.134 310.196 316.933 329.552 294.048 353.818C290.651 353.78 287.213 353.751 283.739 353.732C283.721 350.44 283.695 347.18 283.66 343.956ZM295.915 357.202C336.592 357.955 366.759 360.713 366.759 364C366.759 367.299 336.382 370.065 295.489 370.806C293.396 368.632 291.267 366.436 289.106 364.224C291.414 361.863 293.685 359.521 295.915 357.202Z" fill="white"/>
</svg>
